<svg width="585" height="79" viewBox="0 0 585 79" fill="none" xmlns="http://www.w3.org/2000/svg">
<g clip-path="url(#clip0_15373_268)">
<path d="M357.511 30.9553H349.097V30.4467C349.097 26.2085 346.281 23.869 340.615 23.869C334.948 23.869 331.685 26.039 331.685 30.1077C331.685 32.7184 333.54 34.5154 337.043 35.3969L347.209 37.9059C354.901 39.8046 358.679 43.3647 358.679 49.6712C358.679 53.9094 356.584 63.5725 339.928 63.5725C328.904 63.5725 322.516 58.724 322.516 49.4677H331.17C331.17 54.384 334.57 57.3338 340.889 57.3338C349.475 57.3338 349.922 51.9767 349.922 50.5188C349.922 47.1622 348.617 45.772 340.306 44.0428C329.522 41.8051 323.409 39.2961 323.409 31.0909C323.409 23.3265 330.312 17.9355 340.58 17.9355C344.186 17.9355 347.586 18.5458 350.402 19.6647C354.695 21.3939 357.58 24.4115 357.58 29.7686V30.9892L357.511 30.9553Z" fill="#231F20"/>
<path d="M405.249 18.9196V54.351C405.249 55.7411 405.352 58.4196 405.523 62.3188H396.937C396.834 58.5892 396.766 56.0802 396.766 54.8935C393.778 60.7591 389.073 62.7596 382.754 62.7596C372.417 62.7596 366.819 57.1312 366.819 47.875V18.9196H375.233V47.0952C375.233 53.5712 378.392 56.4192 384.608 56.4192C391.717 56.4192 396.766 52.1132 396.766 44.993V18.8857H405.249V18.9196Z" fill="#231F20"/>
<path d="M440.175 63.9801C433.616 63.9801 429.048 61.3016 426.61 57.5041V79.0342H418.471V25.599C418.471 24.9209 418.368 22.6492 418.196 18.9535H426.507C426.61 22.5136 426.679 24.9209 426.679 26.1415C429.838 20.9539 435.539 18.2754 441.721 18.2754C452.676 18.2754 460.094 26.5823 460.094 40.7548C460.094 54.9273 451.852 64.014 440.141 64.014L440.175 63.9801ZM451.543 40.2123C451.543 29.7694 447.422 24.3106 439.454 24.3106C431.04 24.3106 426.301 29.7694 426.301 41.9415C426.301 52.7574 430.594 58.0127 438.664 58.0127C447.422 58.0127 451.543 50.9943 451.543 40.2123Z" fill="#231F20"/>
<path d="M491.175 63.9801C484.615 63.9801 480.048 61.3016 477.609 57.5041V79.0342H469.47V25.599C469.47 24.9209 469.367 22.6492 469.195 18.9535H477.506C477.609 22.5136 477.678 24.9209 477.678 26.1415C480.838 20.9539 486.539 18.2754 492.72 18.2754C503.676 18.2754 511.094 26.5823 511.094 40.7548C511.094 54.9273 502.852 64.014 491.141 64.014L491.175 63.9801ZM502.542 40.2123C502.542 29.7694 498.421 24.3106 490.454 24.3106C482.04 24.3106 477.3 29.7694 477.3 41.9415C477.3 52.7574 481.593 58.0127 489.664 58.0127C498.421 58.0127 502.542 50.9943 502.542 40.2123Z" fill="#231F20"/>
<path d="M530.12 0V62.3184H521.877V0H530.12Z" fill="#231F20"/>
<path d="M548.287 18.9189L562.024 53.1636L576.036 18.9189H584.966L565.253 62.9284L559.105 78.7623H550.623L557.285 62.1486L538.98 18.9189H548.253H548.287Z" fill="#231F20"/>
<path d="M184.56 17.8679C193.386 17.8679 204.032 20.9194 204.032 28.955V35.9057H191.428V33.2949C191.428 31.1928 188.612 30.0739 185.178 30.0739C178.206 30.0739 175.287 34.3799 175.287 40.3134C175.287 48.01 180.336 51.4005 186.449 51.4005C190.913 51.4005 195.962 49.5357 199.739 46.5859L204.719 56.8254C199.98 61.0636 192.596 63.5048 185.487 63.5048C172.368 63.5048 160.348 55.0284 160.348 40.7881C160.348 28.1752 170.204 17.834 184.56 17.834V17.8679Z" fill="#231F20"/>
<path d="M232.468 35.4315H235.113V34.1431C235.113 30.583 232.194 29.3285 228.862 29.3285C222.852 29.3285 216.67 33.465 216.67 33.465L211.519 23.5646C211.519 23.5646 219.074 17.9023 230.236 17.9023C243.115 17.9023 249.983 24.2427 249.983 35.7028V50.1126C249.983 51.2993 250.67 51.9774 251.872 51.9774H255.135V62.556H242.359C238.066 62.556 236.452 60.1148 236.452 57.9787V57.7075C236.452 56.9616 236.624 56.3513 236.624 56.3513H236.452C236.452 56.3513 232.846 63.5392 223.402 63.5392C215.675 63.5392 208.909 58.8942 208.909 50.0787C208.909 37.2963 225.634 35.4315 232.503 35.4315H232.468ZM227.763 52.9607C231.541 52.9607 235.319 48.4852 235.319 44.6538V43.6367H233.945C229.068 43.6367 223.814 45.1624 223.814 49.0616C223.814 51.3332 225.359 52.9607 227.763 52.9607Z" fill="#231F20"/>
<path d="M261.351 51.9435H266.915V31.3629C266.915 30.1762 266.228 29.498 265.026 29.498H260.905V18.9195H274.985C279.038 18.9195 281.098 20.886 281.098 23.8358V25.2599C281.098 25.6667 280.995 26.277 280.995 26.277H281.167C281.167 26.277 285.013 17.9023 296.175 17.9023C304.52 17.9023 311.114 21.971 311.114 34.2448V51.9435H316.678V62.5221H296.244V36.9234C296.244 32.8547 294.629 31.1594 291.264 31.1594C284.636 31.1594 281.716 37.9405 281.716 44.0435V51.9096H287.28V62.4882H261.282V51.9096L261.351 51.9435Z" fill="#231F20"/>
<path d="M24.2119 17.8679C33.038 17.8679 43.6844 20.9194 43.6844 28.955V35.9057H31.0805V33.2949C31.0805 31.1928 28.2644 30.0739 24.83 30.0739C17.8584 30.0739 14.9392 34.3799 14.9392 40.3134C14.9392 48.01 19.9877 51.4005 26.1007 51.4005C30.5653 51.4005 35.6138 49.5357 39.3915 46.5859L44.3713 56.8254C39.6319 61.0636 32.2482 63.5048 25.1391 63.5048C12.0201 63.5048 0 55.0284 0 40.7881C0 28.1752 9.85646 17.834 24.2119 17.834V17.8679Z" fill="#231F20"/>
<path d="M72.1205 35.4315H74.7649V34.1431C74.7649 30.583 71.8458 29.3285 68.5145 29.3285C62.5044 29.3285 56.3227 33.465 56.3227 33.465L51.1712 23.5646C51.1712 23.5646 58.7267 17.9023 69.8882 17.9023C82.7669 17.9023 89.6355 24.2427 89.6355 35.7028V50.1126C89.6355 51.2993 90.3223 51.9774 91.5243 51.9774H94.7869V62.556H82.0113C77.7184 62.556 76.1043 60.1148 76.1043 57.9787V57.7075C76.1043 56.9616 76.276 56.3513 76.276 56.3513H76.1043C76.1043 56.3513 72.4983 63.5392 63.0539 63.5392C55.3267 63.5392 48.5612 58.8942 48.5612 50.0787C48.5612 37.2963 65.2862 35.4315 72.1549 35.4315H72.1205ZM67.3812 52.9607C71.1589 52.9607 74.9366 48.4852 74.9366 44.6538V43.6367H73.5629C68.6862 43.6367 63.4317 45.1624 63.4317 49.0616C63.4317 51.3332 64.9772 52.9607 67.3812 52.9607Z" fill="#231F20"/>
<path d="M101.003 51.9435H106.567V31.3629C106.567 30.1762 105.88 29.498 104.678 29.498H100.557V18.9195H114.637C118.69 18.9195 120.75 20.886 120.75 23.8358V25.2599C120.75 25.6667 120.647 26.277 120.647 26.277H120.819C120.819 26.277 124.665 17.9023 135.827 17.9023C144.172 17.9023 150.766 21.971 150.766 34.2448V51.9435H156.33V62.5221H135.896V36.9234C135.896 32.8547 134.282 31.1594 130.916 31.1594C124.288 31.1594 121.369 37.9405 121.369 44.0435V51.9096H126.932V62.4882H100.934V51.9096L101.003 51.9435Z" fill="#231F20"/>
</g>
<defs>
<clipPath id="clip0_15373_268">
<rect width="585" height="79" fill="white"/>
</clipPath>
</defs>
</svg>
